<svg width="41" height="40" viewBox="0 0 41 40" fill="none" >
<rect opacity="0.01" x="2.5" y="0.5" width="37.1176" height="37" stroke="#979797"/>
<path fill-rule="evenodd" clip-rule="evenodd" d="M8.01893 8.84518C8.02097 8.84134 8.0211 8.83749 8.02123 8.83364L8.02123 8.83361C8.07584 7.23877 9.03891 6 10.3811 6H28.6292C29.8156 6 30.6954 6.41652 31.2958 7.11165C31.6588 7.53204 31.8477 7.95414 31.919 8.25191L31.2915 8.40913C31.2812 8.36591 31.2517 8.2761 31.1978 8.1556C31.1055 7.94937 30.9784 7.74234 30.8117 7.54937C30.3325 6.99449 29.6281 6.661 28.6292 6.661H10.3811C9.43828 6.661 8.72381 7.56866 8.66821 8.82115H30.1938V9.27115H8.67499C8.76236 10.4232 9.39144 11.2798 10.3811 11.2798H30.587C32.8764 11.2798 34.1994 13.047 34.1994 14.8904V28.5695C34.1994 30.5254 32.711 32.1 30.8219 32.1H11.086C8.88989 32.1 8.01893 30.2786 8.01893 28.0097V9.04757C8.01843 9.009 8.01843 8.97027 8.01893 8.93138L8.01893 8.84518ZM8.66491 28.0098C8.66491 29.9595 9.37235 31.439 11.086 31.439H30.8219C32.3493 31.439 33.5534 30.1652 33.5534 28.5695V26.3715H29.4395C27.2783 26.3715 25.5111 24.5664 25.5111 22.3583V21.293C25.5111 19.0849 27.2783 17.2798 29.4395 17.2798H33.5534V14.8904C33.5534 13.3794 32.4764 11.9408 30.587 11.9408H10.3811C9.64912 11.9408 9.06776 11.6207 8.66491 11.1045V28.0098ZM33.5534 17.9408H29.4395C27.6348 17.9408 26.1571 19.4502 26.1571 21.293V22.3583C26.1571 24.2011 27.6348 25.7105 29.4395 25.7105H33.5534V17.9408ZM27.8276 21.7891C27.8276 22.5595 28.4177 23.1896 29.1527 23.1896C29.8876 23.1896 30.4777 22.5595 30.4777 21.7891C30.4777 21.0188 29.8876 20.3887 29.1527 20.3887C28.4177 20.3887 27.8276 21.0188 27.8276 21.7891ZM29.8317 21.7891C29.8317 22.2006 29.5246 22.5286 29.1527 22.5286C28.7808 22.5286 28.4736 22.2006 28.4736 21.7891C28.4736 21.3777 28.7808 21.0497 29.1527 21.0497C29.5246 21.0497 29.8317 21.3777 29.8317 21.7891Z" fill="#474C55"/>
<path d="M3.55322 32.252C4.6916 36.1306 8.63292 38.3135 12.3564 37.1277V37.1277C14.9354 36.3064 16.7334 34.0844 17.2168 31.5073" stroke="#FF6117"/>
<path d="M2.1933 34.952L3.39862 31.7906L6.58274 33.5541" stroke="#FF6117"/>
<path d="M16.7578 27.9636C15.7501 24.046 11.8843 21.7211 8.12336 22.7708C5.51845 23.4979 3.64705 25.6532 3.07756 28.2111" stroke="#00B0B9" stroke-linejoin="bevel"/>
<path d="M17.967 24.8825L16.6565 27.9982L13.5334 26.12" stroke="#00B0B9"/>
</svg>
